PathFileType	4	(X/Y/Z)	Patient4_TMGait_0pt4_03_left_16.trc.trc
DataRate	CameraRate	NumFrames	NumMarkers	Units	OrigDataRate	OrigDataStartFrame	OrigNumFrames
74.468085106383	74.468085106383	4	33	mm	74.468085106383	1	       141
Frame#	Time	Sacral			L.Shoulder			Chest			R.Shoulder			Neck			R.ASIS			L.ASIS			R.Thigh.Superior			R.Thigh.Lateral			R.Thigh.Inferior			R.Patella			L.Thigh.Superior			L.Thigh.Lateral			L.Thigh.Inferior			L.Patella			L.Shank.Superior			L.Shank.Lateral			L.Shank.Inferior			R.Shank.Superior			R.Shank.Lateral			R.Shank.Inferior			R.Heel			R.Midfoot.Superior			R.Midfoot.Lateral			R.Toe			L.Heel			L.Midfoot.Lateral			L.Midfoot.Superior			L.Toe			L.Elbow			L.Wrist			R.Elbow			R.Wrist			
		X1	Y1	Z1	X2	Y2	Z2	X3	Y3	Z3	X4	Y4	Z4	X5	Y5	Z5	X6	Y6	Z6	X7	Y7	Z7	X8	Y8	Z8	X9	Y9	Z9	X10	Y10	Z10	X11	Y11	Z11	X12	Y12	Z12	X13	Y13	Z13	X14	Y14	Z14	X15	Y15	Z15	X16	Y16	Z16	X17	Y17	Z17	X18	Y18	Z18	X19	Y19	Z19	X20	Y20	Z20	X21	Y21	Z21	X22	Y22	Z22	X23	Y23	Z23	X24	Y24	Z24	X25	Y25	Z25	X26	Y26	Z26	X27	Y27	Z27	X28	Y28	Z28	X29	Y29	Z29	X30	Y30	Z30	X31	Y31	Z31	X32	Y32	Z32	X33	Y33	Z33	

1	20.770000000000	854.318135956035	1005.327964673874	522.693252668723	1029.013704927264	1431.398490574020	332.499193230881	1139.289235515713	1364.023290942245	489.862649251086	1065.372327272856	1439.135156297817	667.359816475076	1019.928660660651	1495.687584690114	489.571623059802	1086.325037746281	940.623459106066	632.776244650337	1064.375327371414	964.274012939428	360.032925052539	1128.027086732330	740.103652601042	602.523163160413	1045.761045339607	630.608236113163	660.579969605414	1123.672299762427	578.834827102732	580.361672113527	1123.262847060994	489.174110185180	585.459626827993	1145.855449114653	776.625153024402	383.046468172528	1095.626199495169	651.672117301337	303.236106374719	1200.353985706807	587.044604087861	359.008024252913	1210.754564372708	498.418172412969	350.619825134440	1144.291437895558	432.201130704650	341.847522362585	1002.904944573700	390.522456434533	291.455603823669	991.153181066938	258.886682291528	342.638694539197	1089.445634781985	401.542372018329	590.806760333550	1012.473994244478	300.783801468681	649.296837268549	1049.441990671031	204.677770848229	585.666094902317	909.604423431398	44.028979790083	550.371630691623	1079.069124469548	96.590367337266	594.669832280252	989.514203084201	37.444620607235	629.450551462681	1198.233713266631	41.721521255667	627.648546607248	801.545241382080	193.147146941625	378.773028331802	858.689102888787	147.864386679803	297.839897890992	964.528391025372	155.807308711642	319.773723815232	1042.033420401402	43.393919585887	289.431604960487	973.742733815205	1083.882346789640	215.285490430447	1039.391043027898	832.535040856605	176.382258346341	1081.351781704170	1105.278594020010	818.288895931629	1288.304754237893	955.993002420696	779.810624493494	
2	20.783428571429	853.037697138060	1006.513711834121	525.270903596576	1027.756493155283	1431.838626985760	334.107556224690	1139.404085489551	1363.949543335693	490.225320319289	1067.760358896308	1439.516822411707	668.405198940006	1020.494833044642	1496.100984787310	490.955477508735	1086.046463227350	940.733881232775	633.296518766011	1061.546948883450	965.183807610372	360.790967274753	1125.024253176616	739.478321246843	602.364844621409	1042.302594187591	630.605162985300	661.060508336225	1119.105454533420	578.284518595786	580.350164176498	1118.088342143827	488.894945988994	585.519305315158	1144.247745487360	779.523432710814	383.950045542828	1096.029598470468	654.389427355175	303.459561723919	1201.044939608638	590.808852812603	359.879411756363	1213.198155020931	503.088224094308	350.793269960237	1149.645228892103	435.602689823013	341.312518226260	1010.514722080186	387.192671886325	292.129610222647	1006.768125487348	255.075494820727	341.553604089116	1084.121998258262	401.404441772698	591.012042250738	1007.143327038160	300.754200206897	649.626040935634	1043.880005572908	204.580658239990	585.790061169316	903.858917907462	44.028210804661	550.410646574428	1073.289535830688	96.517473367622	594.684154263007	983.768972578748	37.412889713146	629.517873190671	1192.505625936168	41.695227333480	627.781700532721	822.697082191797	178.519981493413	379.340691686852	880.578074037854	137.820529184947	296.930187995445	985.573183167848	151.495856548206	317.557072711871	1068.408561097220	44.822624932954	284.308286670256	967.345680912309	1085.163181960306	217.421091825542	1030.320053054784	833.390410821641	177.258455870877	1089.453234297331	1106.539772187524	819.444140692548	1300.846315392334	966.570383283828	776.950135749833	
3	20.796857142857	851.768266157572	1007.670815852953	527.821951059498	1026.512216521323	1432.244667731442	335.669508663908	1139.516578113120	1363.839734150889	490.546335193568	1070.139049427437	1439.859309978011	669.404108839943	1021.057168689673	1496.481708540942	492.295550869045	1085.716128863016	940.794869475786	633.772865050422	1058.720617133527	966.040378235530	361.519571342791	1122.027182692098	738.849864381791	602.196348057376	1038.866189332896	630.598316326396	661.547790863881	1114.555540247352	577.730667309199	580.339185208260	1112.922076038918	488.611488167124	585.578413568890	1142.544050558037	782.293479739044	384.823542091560	1096.290682816677	657.002958882690	303.658113562534	1201.539468369481	594.436834381355	360.770549492957	1215.457776660347	507.668621078106	350.948725051967	1154.843758735987	438.947313928269	340.766442598183	1018.126770555405	383.765955662988	292.712387755834	1022.410482608260	251.299031508474	340.430483978377	1078.816895693372	401.257904580230	591.219782202794	1001.837390016960	300.714417991692	649.958771051098	1038.340535843117	204.483159099491	585.920367269181	898.145757331255	44.022719076247	550.457565331729	1067.541982291992	96.442775694073	594.698188360176	978.056317234458	37.378450049477	629.588953094737	1186.807424400460	41.670270584014	627.906189722390	844.052364991151	163.961604157854	379.785176286826	902.641969141584	127.864635826499	295.939079635558	1006.690234002528	147.293364110698	315.325330603727	1094.807562230530	46.455962190631	279.235865332677	961.031169814914	1086.395035224869	219.544082891232	1021.398165648205	834.214298837436	178.150098692609	1097.452305959465	1107.740413418125	820.505255106861	1313.157288338693	977.061087731614	774.031901448284	
4	20.810285714286	850.523754509023	1008.772080587852	530.302059992358	1025.301445549346	1432.587163020609	337.129177518821	1139.623873560954	1363.665457709459	490.783283179191	1072.483890258515	1440.130619131703	670.303136102085	1021.610275248404	1496.803141788850	493.537193015178	1085.296657804800	940.772877905517	634.168268264439	1055.914292191384	966.797882111452	362.184070004029	1119.050033565149	738.217668175887	602.012058640259	1035.472029879922	630.584519424147	662.039738062834	1110.043249801655	577.171756049646	580.329008620230	1107.778911853010	488.322867807239	585.634368973923	1140.669210345290	784.807513550539	385.633008469997	1096.273593497786	659.406365285559	303.803625590846	1201.662835504367	597.780972055828	361.667927598950	1217.340686800436	512.047695920877	351.076401960405	1159.712986516881	442.169725243091	340.211794034793	1025.712265786209	380.206761719291	293.107482143142	1037.999675758037	247.643448750862	339.247280053325	1073.557503392969	401.102011917682	591.431236968045	996.584941396049	300.658376412349	650.295730705763	1032.852366334920	204.386569613995	586.060109978732	892.502566274160	44.009412154158	550.517533877189	1061.863356537435	96.367580847411	594.713667189481	972.412831665498	37.338977708717	629.662528926058	1181.174169227141	41.648458590529	628.014701948613	865.637384228367	149.682199612032	379.969006399262	924.914134466543	118.173873669280	294.807875062289	1027.819864954604	143.346473371476	313.102918009508	1121.097339946374	48.473055297335	274.385346068638	954.915767517511	1087.529638313045	221.625476026309	1012.808336339048	834.970947269210	179.068772245291	1105.222196424590	1108.816175551183	821.353414177314	1324.974052838476	987.323241798920	770.995443509783	
